<?xml version="1.0" standalone="no"?><!DOCTYPE svg PUBLIC "-//W3C//DTD SVG 1.1//EN" "http://www.w3.org/Graphics/SVG/1.1/DTD/svg11.dtd"><svg t="1530882635794" class="icon" style="" viewBox="0 0 1024 1024" version="1.1" xmlns="http://www.w3.org/2000/svg" p-id="12904" xmlns:xlink="http://www.w3.org/1999/xlink" width="40" height="40"><defs><style type="text/css"></style></defs><path d="M517.152 996.673c-263.866 0-477.727-213.862-477.727-477.727 0-263.824 213.862-477.689 477.727-477.689 263.824 0 477.689 213.862 477.689 477.689 0 263.866-213.862 477.727-477.689 477.727l0 0zM802.274 675.895l-312.795-92.02c0-0.382 0.221-0.639 0.221-0.996l0-335.028c0-23.116-19.685-41.838-43.949-41.838-24.289 0-43.884 18.725-43.884 41.838l0 335.028c0 9.618 4.022 18.053 9.714 25.1-5.181 21.141 7.019 42.793 29.087 49.292l335.285 98.679c23.162 6.789 47.809-5.595 55.082-27.669 7.242-22.141-5.631-45.6-28.765-52.387l0 0z" p-id="12905" fill="#e75151"></path></svg>