<?xml version="1.0" standalone="no"?><!DOCTYPE svg PUBLIC "-//W3C//DTD SVG 1.1//EN" "http://www.w3.org/Graphics/SVG/1.1/DTD/svg11.dtd"><svg t="1530881686532" class="icon" style="" viewBox="0 0 1024 1024" version="1.1" xmlns="http://www.w3.org/2000/svg" p-id="7912" xmlns:xlink="http://www.w3.org/1999/xlink" width="32" height="32"><defs><style type="text/css"></style></defs><path d="M580.266667 341.333333c0-34.133333-25.031111-61.44-56.888889-67.128889V11.377778c0-6.826667-4.551111-11.377778-11.377778-11.377778S500.622222 4.551111 500.622222 11.377778v262.826666c-31.857778 5.688889-56.888889 32.995556-56.888889 67.128889s25.031111 61.44 56.888889 67.128889V1012.622222c0 6.826667 4.551111 11.377778 11.377778 11.377778s11.377778-4.551111 11.377778-11.377778V408.462222c31.857778-5.688889 56.888889-32.995556 56.888889-67.128889z m-68.266667 34.133334c-19.342222 0-34.133333-14.791111-34.133333-34.133334s14.791111-34.133333 34.133333-34.133333 34.133333 14.791111 34.133333 34.133333-14.791111 34.133333-34.133333 34.133334z" fill="#e75151" p-id="7913"></path></svg>